HIERARCHY
ROOT Root
{
  OFFSET 0.0 0.0 0.0
  CHANNELS 6 Xposition Yposition Zposition Zrotation Yrotation Xrotation
  JOINT Hips
  {
    OFFSET 0.0 100.0 0.0
    CHANNELS 6 Xposition Yposition Zposition Zrotation Yrotation Xrotation
    JOINT Spine1
    {
      OFFSET 5.003913 -0.037094 -0.013727
      CHANNELS 3 Zrotation Yrotation Xrotation
      JOINT Spine2
      {
        OFFSET 7.125363 -1e-06 0.0
        CHANNELS 3 Zrotation Yrotation Xrotation
        JOINT Chest
        {
          OFFSET 7.594027 1e-06 0.0
          CHANNELS 3 Zrotation Yrotation Xrotation
          JOINT Neck1
          {
            OFFSET 26.313086 -0.460272 -0.181672
            CHANNELS 3 Zrotation Yrotation Xrotation
            JOINT Neck2
            {
              OFFSET 8.045911 0.0 0.0
              CHANNELS 3 Zrotation Yrotation Xrotation
              JOINT Head
              {
                OFFSET 6.432774 0.0 0.0
                CHANNELS 3 Zrotation Yrotation Xrotation
                JOINT HeadEnd
                {
                  OFFSET 16.169773 0.06451 0.00362
                  CHANNELS 3 Zrotation Yrotation Xrotation
                }
                JOINT Jaw
                {
                  OFFSET 0.108741 3.12938 0.002639
                  CHANNELS 3 Zrotation Yrotation Xrotation
                }
                JOINT LeftEye
                {
                  OFFSET 4.45173 8.166359 3.206392
                  CHANNELS 3 Zrotation Yrotation Xrotation
                }
                JOINT RightEye
                {
                  OFFSET 4.436895 8.135758 -3.222429
                  CHANNELS 3 Zrotation Yrotation Xrotation
                }
              }
            }
          }
          JOINT LeftShoulder
          {
            OFFSET 23.218927 5.195579 1.621656
            CHANNELS 3 Zrotation Yrotation Xrotation
            JOINT LeftArm
            {
              OFFSET 15.902118 2e-06 -2e-06
              CHANNELS 3 Zrotation Yrotation Xrotation
              JOINT LeftForeArm
              {
                OFFSET 28.739307 0.0 -1e-06
                CHANNELS 3 Zrotation Yrotation Xrotation
                JOINT LeftHand
                {
                  OFFSET 27.093981 -4e-06 0.0
                  CHANNELS 3 Zrotation Yrotation Xrotation
                  JOINT LeftHandThumb1
                  {
                    OFFSET 2.276781 3.380274 0.83384
                    CHANNELS 3 Zrotation Yrotation Xrotation
                    JOINT LeftHandThumb2
                    {
                      OFFSET 4.705309 -1e-06 -1e-06
                      CHANNELS 3 Zrotation Yrotation Xrotation
                      JOINT LeftHandThumb3
                      {
                        OFFSET 2.798515 0.0 3e-06
                        CHANNELS 3 Zrotation Yrotation Xrotation
                        JOINT LeftHandThumbEnd
                        {
                          OFFSET 3.180793 4e-06 -4e-06
                          CHANNELS 3 Zrotation Yrotation Xrotation
                        }
                      }
                    }
                  }
                  JOINT LeftHandIndex1
                  {
                    OFFSET 3.247786 2.352677 0.137192
                    CHANNELS 3 Zrotation Yrotation Xrotation
                    JOINT LeftHandIndex2
                    {
                      OFFSET 6.367095 1e-06 0.0
                      CHANNELS 3 Zrotation Yrotation Xrotation
                      JOINT LeftHandIndex3
                      {
                        OFFSET 3.662364 0.0 0.0
                        CHANNELS 3 Zrotation Yrotation Xrotation
                        JOINT LeftHandIndex4
                        {
                          OFFSET 2.329242 4e-06 -4e-06
                          CHANNELS 3 Zrotation Yrotation Xrotation
                          JOINT LeftHandIndexEnd
                          {
                            OFFSET 2.767823 1e-06 0.0
                            CHANNELS 3 Zrotation Yrotation Xrotation
                          }
                        }
                      }
                    }
                  }
                  JOINT LeftHandMiddle1
                  {
                    OFFSET 3.163612 0.945023 -0.406112
                    CHANNELS 3 Zrotation Yrotation Xrotation
                    JOINT LeftHandMiddle2
                    {
                      OFFSET 6.276789 3e-06 0.0
                      CHANNELS 3 Zrotation Yrotation Xrotation
                      JOINT LeftHandMiddle3
                      {
                        OFFSET 4.35652 -1e-06 4e-06
                        CHANNELS 3 Zrotation Yrotation Xrotation
                        JOINT LeftHandMiddle4
                        {
                          OFFSET 2.996877 0.0 8e-06
                          CHANNELS 3 Zrotation Yrotation Xrotation
                          JOINT LeftHandMiddleEnd
                          {
                            OFFSET 2.323256 3e-06 -4e-06
                            CHANNELS 3 Zrotation Yrotation Xrotation
                          }
                        }
                      }
                    }
                  }
                  JOINT LeftHandRing1
                  {
                    OFFSET 2.882606 -0.309162 0.107445
                    CHANNELS 3 Zrotation Yrotation Xrotation
                    JOINT LeftHandRing2
                    {
                      OFFSET 6.033198 0.0 4e-06
                      CHANNELS 3 Zrotation Yrotation Xrotation
                      JOINT LeftHandRing3
                      {
                        OFFSET 4.350578 3e-06 0.0
                        CHANNELS 3 Zrotation Yrotation Xrotation
                        JOINT LeftHandRing4
                        {
                          OFFSET 2.651321 2e-06 -7e-06
                          CHANNELS 3 Zrotation Yrotation Xrotation
                          JOINT LeftHandRingEnd
                          {
                            OFFSET 1.937663 1e-06 -4e-06
                            CHANNELS 3 Zrotation Yrotation Xrotation
                          }
                        }
                      }
                    }
                  }
                  JOINT LeftHandPinky1
                  {
                    OFFSET 2.865315 -1.525436 0.575687
                    CHANNELS 3 Zrotation Yrotation Xrotation
                    JOINT LeftHandPinky2
                    {
                      OFFSET 5.54936 1e-06 -8e-06
                      CHANNELS 3 Zrotation Yrotation Xrotation
                      JOINT LeftHandPinky3
                      {
                        OFFSET 3.070974 0.0 -4e-06
                        CHANNELS 3 Zrotation Yrotation Xrotation
                        JOINT LeftHandPinky4
                        {
                          OFFSET 1.549672 1e-06 0.0
                          CHANNELS 3 Zrotation Yrotation Xrotation
                          JOINT LeftHandPinkyEnd
                          {
                            OFFSET 1.952123 0.0 0.0
                            CHANNELS 3 Zrotation Yrotation Xrotation
                          }
                        }
                      }
                    }
                  }
                }
              }
            }
          }
          JOINT RightShoulder
          {
            OFFSET 23.161716 5.296122 -1.380114
            CHANNELS 3 Zrotation Yrotation Xrotation
            JOINT RightArm
            {
              OFFSET -16.027195 -2e-06 1.1e-05
              CHANNELS 3 Zrotation Yrotation Xrotation
              JOINT RightForeArm
              {
                OFFSET -28.736639 4e-06 2e-06
                CHANNELS 3 Zrotation Yrotation Xrotation
                JOINT RightHand
                {
                  OFFSET -27.133619 6e-06 0.0
                  CHANNELS 3 Zrotation Yrotation Xrotation
                  JOINT RightHandThumb1
                  {
                    OFFSET -2.274328 -3.351035 -0.83067
                    CHANNELS 3 Zrotation Yrotation Xrotation
                    JOINT RightHandThumb2
                    {
                      OFFSET -4.703594 -3e-06 2e-06
                      CHANNELS 3 Zrotation Yrotation Xrotation
                      JOINT RightHandThumb3
                      {
                        OFFSET -2.794935 -4e-06 -3e-06
                        CHANNELS 3 Zrotation Yrotation Xrotation
                        JOINT RightHandThumbEnd
                        {
                          OFFSET -3.183852 4e-06 1e-06
                          CHANNELS 3 Zrotation Yrotation Xrotation
                        }
                      }
                    }
                  }
                  JOINT RightHandIndex1
                  {
                    OFFSET -3.253496 -2.33755 -0.127667
                    CHANNELS 3 Zrotation Yrotation Xrotation
                    JOINT RightHandIndex2
                    {
                      OFFSET -6.344434 0.0 0.0
                      CHANNELS 3 Zrotation Yrotation Xrotation
                      JOINT RightHandIndex3
                      {
                        OFFSET -3.654871 0.0 -8e-06
                        CHANNELS 3 Zrotation Yrotation Xrotation
                        JOINT RightHandIndex4
                        {
                          OFFSET -2.327586 -1e-06 0.0
                          CHANNELS 3 Zrotation Yrotation Xrotation
                          JOINT RightHandIndexEnd
                          {
                            OFFSET -2.770001 3e-06 8e-06
                            CHANNELS 3 Zrotation Yrotation Xrotation
                          }
                        }
                      }
                    }
                  }
                  JOINT RightHandMiddle1
                  {
                    OFFSET -3.168223 -0.944764 0.411762
                    CHANNELS 3 Zrotation Yrotation Xrotation
                    JOINT RightHandMiddle2
                    {
                      OFFSET -6.266691 -1e-06 -4e-06
                      CHANNELS 3 Zrotation Yrotation Xrotation
                      JOINT RightHandMiddle3
                      {
                        OFFSET -4.348901 0.0 0.0
                        CHANNELS 3 Zrotation Yrotation Xrotation
                        JOINT RightHandMiddle4
                        {
                          OFFSET -3.00024 2e-06 -4e-06
                          CHANNELS 3 Zrotation Yrotation Xrotation
                          JOINT RightHandMiddleEnd
                          {
                            OFFSET -2.321477 -4e-06 -4e-06
                            CHANNELS 3 Zrotation Yrotation Xrotation
                          }
                        }
                      }
                    }
                  }
                  JOINT RightHandRing1
                  {
                    OFFSET -2.885654 0.293261 -0.119232
                    CHANNELS 3 Zrotation Yrotation Xrotation
                    JOINT RightHandRing2
                    {
                      OFFSET -6.032835 -1e-06 -4e-06
                      CHANNELS 3 Zrotation Yrotation Xrotation
                      JOINT RightHandRing3
                      {
                        OFFSET -4.33881 0.0 -4e-06
                        CHANNELS 3 Zrotation Yrotation Xrotation
                        JOINT RightHandRing4
                        {
                          OFFSET -2.654903 -4e-06 -4e-06
                          CHANNELS 3 Zrotation Yrotation Xrotation
                          JOINT RightHandRingEnd
                          {
                            OFFSET -1.935122 0.0 4e-06
                            CHANNELS 3 Zrotation Yrotation Xrotation
                          }
                        }
                      }
                    }
                  }
                  JOINT RightHandPinky1
                  {
                    OFFSET -2.866241 1.503904 -0.60527
                    CHANNELS 3 Zrotation Yrotation Xrotation
                    JOINT RightHandPinky2
                    {
                      OFFSET -5.553177 -2e-06 0.0
                      CHANNELS 3 Zrotation Yrotation Xrotation
                      JOINT RightHandPinky3
                      {
                        OFFSET -3.062664 -1e-06 -4e-06
                        CHANNELS 3 Zrotation Yrotation Xrotation
                        JOINT RightHandPinky4
                        {
                          OFFSET -1.546529 2e-06 4e-06
                          CHANNELS 3 Zrotation Yrotation Xrotation
                          JOINT RightHandPinkyEnd
                          {
                            OFFSET -1.952341 0.0 -4e-06
                            CHANNELS 3 Zrotation Yrotation Xrotation
                          }
                        }
                      }
                    }
                  }
                }
              }
            }
          }
        }
      }
    }
    JOINT LeftLeg
    {
      OFFSET -8.443107 2.567604 10.043214
      CHANNELS 3 Zrotation Yrotation Xrotation
      JOINT LeftShin
      {
        OFFSET 43.229198 1e-06 -1e-06
        CHANNELS 3 Zrotation Yrotation Xrotation
        JOINT LeftFoot
        {
          OFFSET 42.298611 1e-06 1e-06
          CHANNELS 3 Zrotation Yrotation Xrotation
          JOINT LeftToeBase
          {
            OFFSET 14.165858 1e-06 0.0
            CHANNELS 3 Zrotation Yrotation Xrotation
            JOINT LeftToeEnd
            {
              OFFSET 6.7141 -0.234461 0.0
              CHANNELS 3 Zrotation Yrotation Xrotation
            }
          }
        }
      }
    }
    JOINT RightLeg
    {
      OFFSET -8.303923 2.592729 -10.047278
      CHANNELS 3 Zrotation Yrotation Xrotation
      JOINT RightShin
      {
        OFFSET -43.369682 0.0 1e-06
        CHANNELS 3 Zrotation Yrotation Xrotation
        JOINT RightFoot
        {
          OFFSET -42.260784 4e-06 2e-06
          CHANNELS 3 Zrotation Yrotation Xrotation
          JOINT RightToeBase
          {
            OFFSET -14.222245 -2e-06 -1e-06
            CHANNELS 3 Zrotation Yrotation Xrotation
            JOINT RightToeEnd
            {
              OFFSET -6.660062 0.232574 -2e-06
              CHANNELS 3 Zrotation Yrotation Xrotation
            }
          }
        }
      }
    }
  }
}
MOTION
Frames: 4
Frame Time: 0.03333333333333333
0.0 0.0 0.0 0.0 -0.0 0.0 0.230907 99.654961 -2.460317 89.16967 2.339915 89.91288 -1.641811 0.962143 -0.471516 -11.457314 -0.435064 -0.649934 14.939224 0.70559 -2.729297 21.580679 -2.847259 2.725373 -2.562772 -0.557863 -0.439703 -31.730085 0.475048 -1.516298 5e-06 0.0 -0.0 0.020449 0.017519 0.007804 0.049274 0.010601 0.006445 0.044408 0.021587 0.016148 -129.440414 -73.173904 145.687164 40.705544 -54.02142 25.001219 23.564169 0.480626 -0.048489 -2.102681 0.588362 2.262395 17.636637 -26.322733 52.411186 -19.466665 -14.395598 29.410393 -1e-06 -8.774822 -2e-06 16.068331 -17.937983 6.151601 -0.609776 -1.795653 -3.889327 -4.807089 -11.046813 -2.93785 4e-06 -20.976019 1e-06 -5.019969 -25.03356 -4.031883 5e-06 -2e-06 1e-06 -10.634535 -5.686969 -3.565586 10.573276 -17.922951 -3.113901 4e-06 -13.821206 -1e-06 -0.501778 -31.181505 -4.027013 -11.633228 -60.036968 7.375191 -13.982714 -7.150197 -2.875039 13.77273 -8.401493 -3.218242 0.347737 -34.211555 0.771651 -0.963028 -17.733368 2.62102 -1e-06 1e-06 1e-06 -17.346416 -20.095215 -4.201779 21.757561 -1.638376 3.866429 2e-06 -6.338824 1e-06 -1.697589 -22.591745 -6.194004 -0.0 -3e-06 -1e-06 34.631199 -72.189537 161.637817 29.566708 -55.722706 7.486822 26.890652 -0.104129 0.046919 -2.051379 4.94579 -4.907121 22.182114 -20.375898 49.933327 -16.701815 -16.743526 28.476534 -3e-06 -12.690599 0.0 15.962976 -17.577641 2.708948 -0.10592 -1.513856 -4.275881 -5.03904 -5.612873 -2.953557 4e-06 -11.020525 -3e-06 -6.111297 -15.895334 -3.84047 -0.0 -0.0 1e-06 -10.28337 -5.680288 -4.341838 11.028295 -11.302407 -2.372633 -1.384268 -14.238585 -6.320121 -0.625438 -26.924194 -3.827601 -4.007781 -49.602879 -3.726748 -13.708522 -7.363476 -3.720941 18.141146 -14.052741 -3.242676 5e-06 -18.787271 -3e-06 -0.429711 -8.456045 2.555504 -1e-06 -2e-06 0.0 -15.923531 -20.094484 -5.473584 30.419207 -7.190827 1.735925 3e-06 -8.16293 -1e-06 -1.8619 -22.861475 -6.167942 1e-06 -4e-06 -3e-06 175.379883 -5.401077 -1.991293 18.543688 -0.013181 0.094345 -80.653381 2.099504 -5.151021 -7.232744 1.597494 2.106161 -0.999998 -0.0 0.0 -2.578227 -2.573398 -5.521367 16.578922 -0.036963 -0.021012 -79.725151 -8.07251 -8.512744 -7.260497 0.769182 1.631541 -1.000001 0.0 0.0 
0.0 0.0 0.0 0.0 -0.0 0.0 0.204352 99.674782 -2.464793 89.16848 2.347221 89.913689 -1.647502 0.930942 -0.499295 -11.441252 -0.408597 -0.578311 14.919516 0.704837 -2.7817 21.592825 -2.856143 2.714145 -2.53933 -0.548276 -0.397499 -31.732086 0.422047 -1.475547 6e-06 -0.0 -0.0 0.020517 0.019631 0.033494 0.060386 0.014117 0.034396 0.054438 0.022343 0.039579 -129.40123 -73.185745 145.726288 40.789257 -54.035084 24.866064 23.521286 0.423769 -0.084863 -2.025964 0.627254 2.422503 17.636625 -26.322729 52.411179 -19.46666 -14.3956 29.410389 0.0 -8.774822 -0.0 16.022423 -17.90868 6.157839 -0.609776 -1.795654 -3.889325 -4.807087 -11.046809 -2.937847 4e-06 -20.976013 -0.0 -5.019969 -25.033554 -4.03188 6e-06 -1e-06 1e-06 -10.634533 -5.68697 -3.565588 10.573272 -17.922947 -3.113899 2e-06 -13.821205 -1e-06 -0.501781 -31.181498 -4.027013 -11.551403 -59.990585 7.38203 -13.982712 -7.150198 -2.875042 13.77273 -8.401491 -3.218241 0.347734 -34.211555 0.771651 -0.963032 -17.73337 2.621021 1e-06 3e-06 0.0 -17.34642 -20.095217 -4.201779 21.757557 -1.638375 3.866429 2e-06 -6.338823 0.0 -1.697592 -22.591745 -6.194005 -1e-06 -3e-06 -1e-06 34.621975 -72.161362 161.733276 29.549622 -55.760994 7.38225 26.80451 -0.099214 0.026933 -1.986197 4.889836 -4.82248 22.182114 -20.375895 49.933327 -16.701813 -16.74353 28.476534 -3e-06 -12.6906 1e-06 15.971452 -17.573843 2.705193 -0.105919 -1.513855 -4.275881 -5.039042 -5.612872 -2.953557 4e-06 -11.020523 -3e-06 -6.111298 -15.89533 -3.840471 0.0 -1e-06 0.0 -10.28337 -5.680288 -4.341837 11.028295 -11.302403 -2.372633 -1.384269 -14.23858 -6.320121 -0.625438 -26.924187 -3.8276 -4.022346 -49.72715 -3.67961 -13.708524 -7.363476 -3.72094 18.14115 -14.052739 -3.242675 4e-06 -18.78727 -0.0 -0.429711 -8.456044 2.555505 -0.0 -2e-06 0.0 -15.923536 -20.094482 -5.473584 30.41921 -7.190824 1.735928 3e-06 -8.162927 -0.0 -1.861903 -22.861469 -6.167941 1e-06 -5e-06 -1e-06 175.474106 -5.417632 -1.96615 18.362078 -0.000357 0.134064 -80.563919 2.115076 -5.236635 -7.291597 1.617624 2.108126 -0.999998 0.0 0.0 -2.487643 -2.535579 -5.482021 16.40201 -0.043375 -0.002194 -79.636475 -8.119189 -8.499381 -7.287396 0.760531 1.634675 -1.000002 -0.0 0.0 
0.0 0.0 0.0 0.0 -0.0 0.0 0.173774 99.673653 -2.48351 89.180954 2.353903 89.906944 -1.657612 0.897981 -0.519637 -11.448913 -0.397774 -0.546234 14.957251 0.700343 -2.793793 21.576147 -2.880173 2.720804 -2.557155 -0.526104 -0.396345 -31.662111 0.37895 -1.454162 6e-06 -0.0 -0.0 0.019955 0.02141 0.045077 0.05457 0.01557 0.048854 0.050232 0.0243 0.048079 -129.368362 -73.211075 145.714218 40.787643 -54.06953 24.84614 23.552942 0.379 -0.104891 -1.982744 0.651827 2.422268 17.636625 -26.322729 52.411194 -19.466663 -14.395597 29.410393 -1e-06 -8.774822 -1e-06 16.019524 -17.903091 6.159052 -0.609777 -1.795655 -3.889326 -4.807087 -11.046809 -2.937852 5e-06 -20.976013 -2e-06 -5.019969 -25.033556 -4.03188 6e-06 -0.0 -0.0 -10.634535 -5.686971 -3.565583 10.573275 -17.922947 -3.1139 5e-06 -13.821206 -1e-06 -0.501781 -31.181505 -4.027013 -11.547109 -59.923946 7.383291 -13.982714 -7.150197 -2.87504 13.772729 -8.401491 -3.218242 0.347735 -34.211552 0.771653 -0.963028 -17.733366 2.62102 1e-06 2e-06 0.0 -17.346416 -20.095215 -4.201782 21.757557 -1.638375 3.866426 3e-06 -6.338823 0.0 -1.69759 -22.591743 -6.194007 -0.0 -4e-06 -1e-06 34.599705 -72.127312 161.816101 29.487709 -55.77634 7.313554 26.769579 -0.117282 0.008589 -1.944063 4.890732 -4.780593 22.182112 -20.375891 49.933308 -16.701807 -16.743528 28.476524 -2e-06 -12.690598 -0.0 15.974049 -17.545528 2.715442 -0.105918 -1.513856 -4.27588 -5.039039 -5.612869 -2.953556 4e-06 -11.020519 -2e-06 -6.111296 -15.895326 -3.840468 -0.0 -1e-06 1e-06 -10.283367 -5.680286 -4.341836 11.028289 -11.302401 -2.37263 -1.384268 -14.238575 -6.320119 -0.625437 -26.924177 -3.8276 -4.037824 -49.775925 -3.650139 -13.708521 -7.363474 -3.720939 18.141144 -14.052735 -3.242673 4e-06 -18.787266 -1e-06 -0.429712 -8.456041 2.555502 -0.0 -1e-06 0.0 -15.923534 -20.094479 -5.473582 30.41921 -7.190823 1.735926 2e-06 -8.162925 -1e-06 -1.861903 -22.861462 -6.16794 -1e-06 -4e-06 -1e-06 175.482025 -5.421606 -1.944466 18.337603 0.002235 0.154035 -80.543785 2.126568 -5.285764 -7.274996 1.620945 2.109199 -0.999999 0.0 0.0 -2.519099 -2.526586 -5.437489 16.45266 -0.04074 -0.003143 -79.65036 -8.182446 -8.495697 -7.256853 0.76048 1.637206 -1.000001 0.0 -0.0 
0.0 0.0 0.0 0.0 -0.0 0.0 0.147139 99.670944 -2.510631 89.189362 2.363166 89.915161 -1.654983 0.86931 -0.5301 -11.458418 -0.391573 -0.54719 15.002613 0.692846 -2.77695 21.555475 -2.914032 2.721541 -2.585186 -0.512907 -0.38682 -31.621181 0.355511 -1.463083 6e-06 -0.0 -0.0 0.01897 0.020923 0.046017 0.040179 0.014549 0.051782 0.036881 0.024247 0.046506 -129.35968 -73.235481 145.714706 40.789017 -54.102009 24.925568 23.603905 0.363733 -0.101979 -1.937011 0.687916 2.397696 17.636631 -26.322725 52.411182 -19.46666 -14.395597 29.410381 -1e-06 -8.774821 -2e-06 16.019451 -17.889305 6.147384 -0.609777 -1.795653 -3.88933 -4.807088 -11.046809 -2.937846 5e-06 -20.976017 -2e-06 -5.019969 -25.03356 -4.031881 6e-06 1e-06 2e-06 -10.634534 -5.686968 -3.565588 10.573274 -17.922947 -3.113898 3e-06 -13.821205 -1e-06 -0.501778 -31.181498 -4.027015 -11.530692 -59.868454 7.353006 -13.982714 -7.150197 -2.87504 13.772731 -8.401491 -3.21824 0.347738 -34.211544 0.771653 -0.963028 -17.733366 2.621021 1e-06 1e-06 0.0 -17.346416 -20.095213 -4.201782 21.757559 -1.638376 3.866427 3e-06 -6.338823 0.0 -1.69759 -22.591745 -6.194004 -1e-06 -2e-06 -1e-06 34.583759 -72.102043 161.876465 29.411205 -55.789677 7.371682 26.766787 -0.102624 0.006259 -1.955665 4.846192 -4.806386 22.182117 -20.375883 49.9333 -16.701818 -16.74353 28.47653 -3e-06 -12.690601 1e-06 15.982138 -17.518064 2.72597 -0.105919 -1.513857 -4.275881 -5.039042 -5.612872 -2.953557 4e-06 -11.020524 -3e-06 -6.1113 -15.895334 -3.840471 -0.0 -1e-06 0.0 -10.283372 -5.680289 -4.341837 11.028296 -11.302406 -2.372634 -1.384269 -14.238581 -6.320121 -0.625437 -26.924191 -3.827605 -4.064867 -49.75835 -3.624907 -13.708527 -7.363477 -3.720938 18.141153 -14.052739 -3.242679 6e-06 -18.78727 -5e-06 -0.429711 -8.456043 2.555504 -0.0 -1e-06 -0.0 -15.923538 -20.094484 -5.473584 30.419218 -7.190826 1.735927 3e-06 -8.162928 -1e-06 -1.861902 -22.861467 -6.167945 0.0 -3e-06 -1e-06 175.471786 -5.428146 -1.932328 18.337774 0.000376 0.16046 -80.525955 2.131681 -5.310006 -7.243773 1.613038 2.106712 -0.999999 0.0 0.0 -2.554443 -2.51601 -5.392475 16.510098 -0.036202 -0.018158 -79.662697 -8.250782 -8.501372 -7.227039 0.758415 1.637517 -1.000002 1e-06 0.0 
